<mxfile host="app.diagrams.net" modified="2024-07-03T04:01:03.908Z" agent="Mozilla/5.0 (Macintosh; Intel Mac OS X 10.15; rv:126.0) Gecko/20100101 Firefox/126.0" version="24.5.2" etag="RWTkKTQPKyx6y2MtH3Gy" type="github">
  <diagram name="페이지-1" id="pbxjrRBybGmCwXDcirEK">
    <mxGraphModel>
      <root>
        <mxCell id="0" />
        <mxCell id="1" parent="0" />
      </root>
    </mxGraphModel>
  </diagram>
</mxfile>
